<svg width="15" height="19" viewBox="0 0 15 19" fill="none" xmlns="http://www.w3.org/2000/svg">
<path d="M7.5 4L7.5 0H0V14C3.65938 17.2528 10.6252 17.8604 13.1 17.9739C13.4071 17.988 13.5646 17.6021 13.3479 17.3841C11.7002 15.727 7.5 10.8328 7.5 4Z" fill="white"/>
<mask id="mask0_488_15806" style="mask-type:alpha" maskUnits="userSpaceOnUse" x="1" y="2" width="14" height="18">
<path fill-rule="evenodd" clip-rule="evenodd" d="M1.5 17.1479V20H15V2H8.1512C8.11255 6.7803 7.90412 9.54159 6.78014 11.7475C5.60956 14.0449 3.76651 15.9281 1.5 17.1479Z" fill="#8B1A1A"/>
</mask>
<g mask="url(#mask0_488_15806)">
<path d="M7.5 4L7.5 0H0V14C3.65938 17.2528 10.6252 17.8604 13.1 17.9739C13.4071 17.988 13.5646 17.6021 13.3479 17.3841C11.7002 15.727 7.5 10.8328 7.5 4Z" fill="white"/>
<path d="M7.83008 -0.330078V4C7.83008 10.6998 11.9535 15.5136 13.582 17.1514C13.9909 17.5626 13.7206 18.3328 13.085 18.3037C11.8371 18.2465 9.45544 18.065 6.9209 17.4863C4.39444 16.9095 1.67228 15.9289 -0.219727 14.2471L-0.330078 14.1484V-0.330078H7.83008Z" stroke="black" stroke-opacity="0.06" stroke-width="0.66"/>
</g>
</svg>
