<svg width="15" height="19" viewBox="0 0 15 19" fill="none" xmlns="http://www.w3.org/2000/svg">
<path d="M7.5 4L7.5 0H15V14C11.3406 17.2528 4.37479 17.8604 1.90001 17.9739C1.59291 17.988 1.43536 17.6021 1.65211 17.3841C3.2998 15.727 7.5 10.8328 7.5 4Z" fill="white"/>
<mask id="mask0_488_17407" style="mask-type:alpha" maskUnits="userSpaceOnUse" x="0" y="2" width="14" height="18">
<path fill-rule="evenodd" clip-rule="evenodd" d="M13.5 17.1479V20H0V2H6.8488C6.88745 6.7803 7.09588 9.54159 8.21986 11.7475C9.39044 14.0449 11.2335 15.9281 13.5 17.1479Z" fill="#8B1A1A"/>
</mask>
<g mask="url(#mask0_488_17407)">
<path d="M7.5 4L7.5 0H15V14C11.3406 17.2528 4.37479 17.8604 1.90001 17.9739C1.59291 17.988 1.43536 17.6021 1.65211 17.3841C3.2998 15.727 7.5 10.8328 7.5 4Z" fill="white"/>
<path d="M7.16992 -0.330078V4C7.16992 10.6998 3.04651 15.5136 1.41797 17.1514C1.00912 17.5626 1.27945 18.3328 1.91504 18.3037C3.1629 18.2465 5.54456 18.065 8.0791 17.4863C10.6056 16.9095 13.3277 15.9289 15.2197 14.2471L15.3301 14.1484V-0.330078H7.16992Z" stroke="black" stroke-opacity="0.06" stroke-width="0.66"/>
</g>
</svg>
